<?xml version="1.0" encoding="utf-8"?>
<!-- Generator: Adobe Illustrator 21.1.0, SVG Export Plug-In . SVG Version: 6.00 Build 0)  -->
<svg version="1.1" id="Layer_1" xmlns="http://www.w3.org/2000/svg" xmlns:xlink="http://www.w3.org/1999/xlink" x="0px" y="0px"
	 viewBox="0 0 163 205" style="enable-background:new 0 0 163 205;" xml:space="preserve">
<style type="text/css">
	.st0{fill:#FFD44E;}
</style>
<path class="st0" d="M156.2,102.6c-6.1-8.5-20.9-18.5-35.5-27c-0.3-21.1-10.4-38-25.1-44.3c1.1-4.4,4-12.4,10.5-14.5
	c8.9-3,15.7,4.2,16,4.4c1.4,1.5,3.8,1.6,5.4,0.2c1.5-1.4,1.6-3.8,0.2-5.4c-0.4-0.5-10.4-11-24-6.5c-9.7,3.2-13.8,13.7-15.4,19.6
	c-1.9-0.3-3.8-0.5-5.7-0.5c-1.9,0-3.7,0.2-5.5,0.5C69.5,6.8,60.4,2.2,58.6,1.5c-5.2-2-10.4-1.9-14.9,0.3C37,5.1,31.9,12.9,28.5,24.9
	c-0.6,2,0.6,4.1,2.6,4.7c2,0.6,4.1-0.6,4.7-2.6c2.8-9.7,6.7-16.1,11.2-18.4c2.6-1.3,5.5-1.3,8.7,0c4.9,1.9,10.6,13.4,13.9,22.7
	c-14.7,6.1-24.9,22.5-25.2,43.1C29.1,83.1,13,93.7,6.6,102.6c-7.9,11-9.8,30.1,0,39.9c4.9,4.9,13,7.9,21.1,7.9
	c2.3,0,4.6-0.3,6.9-0.8c2.1,10.2,10.3,34.6,42.9,54.6c0.6,0.4,1.3,0.6,2,0.6c0.5,0,1-0.1,1.5-0.3c1.2-0.5,29.3-13.2,46.1-55.1
	c2.5,0.7,5.2,1,7.8,1c8.1,0,16.2-3,21.1-7.9C166,132.7,164.1,113.6,156.2,102.6z M74.4,37.6c0.1,0,1.9-0.4,2.3-0.6
	c1.9-0.4,3.9-0.7,5.9-0.7c15.3,0,27.3,13.4,29.9,32.2c0.2,1.1-1,1.9-2,1.4c-12.8-7-23.7-12.1-26-13.2h0c-2-0.9-4.3-0.9-6.3,0h0
	c-2.1,1-11.9,5.6-23.6,11.9c-1,0.5-2.1-0.3-2-1.4C54.9,52.3,63,41.2,74.4,37.6z M51.9,170.3c-2.4-3.5-4.2-6.9-5.6-10
	c-0.8-1.7,0.5-3.7,2.3-3.7l62.7,0c2,0,3.2,2.1,2.3,3.8c-2,3.6-4.1,6.9-6.1,9.9c-1.1,1.6-2.9,2.5-4.8,2.5H56.8
	C54.9,172.9,53,171.9,51.9,170.3z M53.4,136.5c2.6-3.2,5.2-6.7,7.6-10.5c1.5-2.3,4-3.7,6.7-3.7h27.5c2.7,0,5.2,1.4,6.7,3.7
	c2.4,3.8,5,7.3,7.6,10.5c1.1,1.3,0.2,3.3-1.6,3.3h-53C53.2,139.8,52.3,137.8,53.4,136.5z M72.7,103c1.3-3.1,2.5-6.4,3.6-9.7
	c0.7-2,2.6-3.4,4.7-3.4h0.9c2.1,0,4,1.4,4.7,3.4c1.1,3.3,2.3,6.5,3.6,9.7c0.5,1.2-0.4,2.5-1.7,2.5H74.3
	C73.1,105.5,72.2,104.2,72.7,103z M12,137.1c-6.2-6.2-5.8-20.8,0.8-30.1c9-12.6,41.7-30,58.6-38.5c1.6-0.8,3.4,0.6,3,2.3
	c-5.8,28-18.6,54.2-33.3,67.3c-1.5,1.3-3.1,2.3-4.9,3c-0.1,0-0.1,0.1-0.2,0.1C28,144.5,17.3,142.4,12,137.1z M150.8,137.1
	c-6.4,6.4-21.2,8.2-29.2,1.1c-14.8-13.1-27.5-39.3-33.3-67.3c-0.4-1.7,1.5-3.1,3-2.3c17,8.5,49.6,25.9,58.6,38.5
	C156.6,116.3,157,130.9,150.8,137.1z"/>
</svg>
