<?xml version="1.0" encoding="utf-8"?>
<!-- Generator: Adobe Illustrator 21.1.0, SVG Export Plug-In . SVG Version: 6.00 Build 0)  -->
<svg version="1.1" id="Layer_1" xmlns="http://www.w3.org/2000/svg" xmlns:xlink="http://www.w3.org/1999/xlink" x="0px" y="0px"
	 viewBox="0 0 131.4 150.1" style="enable-background:new 0 0 131.4 150.1;" xml:space="preserve">
<style type="text/css">
	.st0{fill:#FFD44E;}
</style>
<path class="st0" d="M123.3,104.8c-9-7.8-15.4-28.6-15.3-53c0.1-18.5-11.7-34.2-28.2-40C78.7,5.1,72.9,0,65.9,0
	c-7,0-12.7,5-13.9,11.7C35.5,17.4,23.6,33,23.5,51.4c-0.1,24.4-6.6,45.1-15.7,52.9c-5.1,4.3-8,10.7-8,17.4c0,7.8,6.2,14.1,14,14.1
	l37.5,0.1c0,7.8,6.2,14.1,14,14.1c7.8,0,14.1-6.2,14.1-14l37.5,0.1c7.8,0,14.1-6.2,14.1-14C131.2,115.5,128.3,109.2,123.3,104.8z"/>
</svg>
