<?xml version="1.0" encoding="utf-8"?>
<!-- Generator: Adobe Illustrator 21.1.0, SVG Export Plug-In . SVG Version: 6.00 Build 0)  -->
<svg version="1.1" id="Layer_1" xmlns="http://www.w3.org/2000/svg" xmlns:xlink="http://www.w3.org/1999/xlink" x="0px" y="0px"
	 viewBox="0 0 131.4 150.1" style="enable-background:new 0 0 131.4 150.1;" xml:space="preserve">
<style type="text/css">
	.st0{fill:#071439;}
</style>
<path class="st0" d="M123.4,104.6c-9-7.8-15.5-28.6-15.5-53c0-18.5-11.9-34.1-28.4-39.9C78.4,5.1,72.7,0,65.7,0
	c-7,0-12.7,5.1-13.8,11.8c-16.5,5.7-28.4,21.4-28.4,39.9c0,24.4-6.5,45.2-15.5,53c-5,4.4-8,10.7-8,17.4c0,7.8,6.3,14.1,14.1,14.1
	h37.5c0,7.8,6.3,14.1,14.1,14.1c7.8,0,14.1-6.3,14.1-14.1h37.5c7.8,0,14.1-6.3,14.1-14.1C131.4,115.3,128.5,108.9,123.4,104.6z"/>
</svg>
